OpenSim_Sub09_CSStiffKnee_LCS.mot
version=1
nRows=51
nColumns=11
inDegrees=no
endheader
time	Bot_Shank	2nd_Bot_Shank	2nd_Top_Shank	Top_Shank	Bot_Thigh	Med_Thigh	Top_Thigh	BNOx	BNOy	BNOZ
17.81000000	10588.25957337	10521.42352150	11231.75373671	10565.29398290	13198.78113024	14473.74331522	14916.55850541	212.66684363	-77.63835833	212.26260945
17.82000000	10593.98777770	10520.55898690	11231.83591180	10567.71929936	13234.06508434	14473.26944478	14925.94975141	211.98616856	-77.79108669	207.38695655
17.83000000	10600.21645380	10520.25620704	11231.91755542	10570.67248760	13265.88880870	14473.85211956	14936.95105284	211.30698583	-77.92713416	195.01168469
17.84000000	10606.69596541	10520.77484991	11231.98813758	10574.21526336	13291.75956562	14475.52971386	14948.65481899	210.63360194	-78.04055447	173.80024456
17.85000000	10613.17240213	10522.32426982	11232.03832908	10578.37192219	13309.50895221	14478.31209419	14960.20273316	209.97044051	-78.12629684	142.74405043
17.86000000	10619.36026513	10524.74197147	11232.06767519	10582.89020108	13319.36560229	14481.99843678	14971.10064449	209.32279069	-78.18592874	103.25837264
17.87000000	10624.95989753	10527.69879548	11232.07969877	10587.39388265	13322.63250869	14486.29348583	14981.01762233	208.69632957	-78.22398397	57.84486098
17.88000000	10629.67157567	10530.86479632	11232.07794142	10591.50616486	13320.61773195	14490.90154012	14989.62350591	208.09673609	-78.24501032	9.01028970
17.89000000	10633.19557591	10533.91002846	11232.06594476	10594.85024563	13314.62933260	14495.52689842	14996.58813451	207.52968916	-78.25355557	-40.73856698
17.90000000	10635.23217459	10536.50454635	11232.04725041	10597.04932289	13305.97537119	14499.87385950	15001.58134735	207.00086772	-78.25416751	-88.89493483
17.91000000	10635.48164805	10538.31840447	11232.02539997	10597.72659460	13295.96390827	14503.64672212	15004.27298370	206.51595069	-78.25139392	-132.95203962
17.92000000	10633.64427263	10539.02165728	11232.00393506	10596.50525868	13285.90300437	14506.54978508	15004.33288280	206.08061699	-78.24978259	-170.40310711
17.93000000	10629.48907664	10538.34052994	11231.98606457	10593.07929255	13276.98584078	14508.32964910	15001.52204755	205.69899403	-78.25349405	-199.04460866
17.94000000	10623.29320832	10536.41638412	11231.97253844	10587.66577822	13269.55656929	14509.04555288	14996.27523726	205.36374248	-78.26382674	-218.91419000
17.95000000	10615.56155675	10533.57664688	11231.96300446	10580.71625471	13263.57880415	14508.89686039	14989.32919084	205.06238358	-78.28079631	-231.05399787
17.96000000	10606.80008529	10530.14962297	11231.95710524	10572.68336699	13259.01436463	14508.08359657	14981.42207161	204.78241434	-78.30441236	-236.51091720
17.97000000	10597.51475728	10526.46361712	11231.95448339	10564.01976001	13255.82506999	14506.80578634	14973.29204293	204.51133175	-78.33468448	-236.33183293
17.98000000	10588.21153607	10522.84693409	11231.95478152	10555.17807872	13253.97273951	14505.26345465	14965.67726813	204.23663283	-78.37162228	-231.56363001
17.99000000	10579.39638500	10519.62787861	11231.95764224	10546.61096810	13253.41919243	14503.65662641	14959.31591055	203.94581457	-78.41523534	-223.25319338
18	10571.57526741	10517.13475541	11231.96270814	10538.77107309	13254.12624803	14502.18532657	14954.94613353	203.62637398	-78.46553328	-212.44740797
18.01000000	10565.25414666	10515.69586925	11231.96962185	10532.11103865	13256.05572558	14501.04958006	14953.30610040	203.26580806	-78.52252569	-200.19315873
18.02000000	10560.93898608	10515.63952486	11231.97802596	10527.08350975	13259.16944434	14500.44941181	14955.13397452	202.85161382	-78.58622216	-187.53733060
18.03000000	10559.13574903	10517.29402698	11231.98756308	10524.14113134	13263.42922357	14500.58484675	14961.16791922	202.37128825	-78.65663229	-175.52680852
18.04000000	10560.35039884	10520.98768036	11231.99787583	10523.73654838	13268.79688254	14501.65590982	14972.14609783	201.81232836	-78.73376569	-165.20847742
18.05000000	10564.97851752	10526.97074036	11232.00851654	10526.20628235	13275.19853711	14503.82027564	14988.60869414	201.16484117	-78.81727227	-157.49444228
18.06000000	10572.59989992	10534.91662878	11232.01837055	10531.02862960	13282.29643265	14506.92262362	15009.63269920	200.43822335	-78.90414384	-152.30069974
18.07000000	10582.42870270	10544.24022886	11232.02602419	10537.29722746	13289.63454699	14510.66734777	15033.63929675	199.65051723	-78.99018077	-149.09678776
18.08000000	10593.67735780	10554.35520434	11232.03006241	10544.10389883	13296.75630009	14514.75818038	15059.04657712	198.81980595	-79.07117785	-147.35013835
18.09000000	10605.55829716	10564.67521896	11232.02907014	10550.54046661	13303.20511194	14518.89885376	15084.27263062	197.96417263	-79.14292984	-146.52818355
18.10000000	10617.28395272	10574.61393645	11232.02163233	10555.69875369	13308.52440249	14522.79310018	15107.73554758	197.10170039	-79.20123153	-146.09835537
18.11000000	10628.06675642	10583.58502055	11232.00633390	10558.67058297	13312.25759171	14526.14465195	15127.85341830	196.25047236	-79.24187767	-145.52808584
18.12000000	10637.18491689	10591.05505609	11231.98216948	10558.64182878	13314.01942864	14528.68285987	15143.20035012	195.42722148	-79.26089712	-144.32262125
18.13000000	10644.59569581	10597.03696489	11231.95236305	10555.76931645	13314.16103615	14530.40155049	15153.96111002	194.63474190	-79.25673524	-142.37758795
18.14000000	10650.65695974	10601.86597829	11231.92263370	10550.78268024	13313.46795819	14531.45057684	15161.27066774	193.86760465	-79.22926299	-139.81891557
18.15000000	10655.73175302	10605.88149345	11231.89873276	10544.41895790	13312.73135352	14531.98180856	15166.27627424	193.12027445	-79.17836976	-136.77551038
18.16000000	10660.18311995	10609.42290750	11231.88641156	10537.41518716	13312.74238088	14532.14711531	15170.12518049	192.38721606	-79.10394494	-133.37627863
18.17000000	10664.37410487	10612.82961758	11231.89142145	10530.50840578	13314.29219905	14532.09836673	15173.96463745	191.66289419	-79.00587792	-129.75012658
18.18000000	10668.66775208	10616.44102085	11231.91951374	10524.43565150	13318.17196678	14531.98743248	15178.94189608	190.94177360	-78.88405811	-126.02596051
18.19000000	10673.42710593	10620.59651444	11231.97643978	10519.93396205	13325.17284283	14531.96618220	15186.20420734	190.21831902	-78.73837487	-122.33268668
18.20000000	10678.98045329	10625.59121044	11232.06704548	10517.68288220	13336.01202426	14532.18268078	15196.78809926	189.48735221	-78.56840721	-118.79126892
18.21000000	10685.29725871	10631.26303903	11232.18682951	10517.76842137	13350.64315607	14532.74571423	15210.58703891	188.74738071	-78.37052958	-115.44067664
18.22000000	10692.13530082	10637.18021764	11232.32577618	10519.92643493	13368.56942847	14533.74089613	15226.82014868	187.99908646	-78.13922595	-112.27150689
18.23000000	10699.24962221	10642.90747765	11232.47379853	10523.88825258	13389.28820963	14535.25354056	15244.69783519	187.24317953	-77.86895586	-109.27373152
18.24000000	10706.39526550	10648.00955048	11232.62080958	10529.38520404	13412.29686772	14537.36896158	15263.43050507	186.48036995	-77.55417883	-106.43732240
18.25000000	10713.32727329	10652.05116753	11232.75672237	10536.14861901	13437.09277090	14540.17247327	15282.22856491	185.71136778	-77.18935441	-103.75225138
18.26000000	10719.80068820	10654.59706022	11232.87144994	10543.90982718	13463.17328733	14543.74938972	15300.30242134	184.93688308	-76.76894212	-101.20849032
18.27000000	10725.57055284	10655.21195995	11232.95490533	10552.40015825	13490.03578520	14548.18502499	15316.86248096	184.15762589	-76.28740151	-98.79601108
18.28000000	10730.39190981	10653.46059813	11232.99700155	10561.35094194	13517.17763266	14553.56469317	15331.11915040	183.37430628	-75.73919209	-96.50478551
18.29000000	10734.03266988	10648.94194191	11232.98840430	10570.50906120	13544.09342759	14559.95708291	15342.32209069	182.58798115	-75.11948005	-94.32623392
18.30000000	10736.45328957	10641.76722662	11232.93104098	10579.85412181	13570.23631610	14567.18211746	15350.30832553	181.80489772	-74.43400484	-92.27344993
18.31000000	10737.76244746	10632.44203267	11232.83550831	10589.54488003	13595.02753465	14574.86821999	15355.36703153	181.03529865	-73.69664526	-90.37621126
